<svg width="274" height="105" viewBox="0 0 274 105" fill="none" xmlns="http://www.w3.org/2000/svg">
<path d="M20 12C20 20.1432 20.8284 28.1585 21 36.2222C21.142 42.896 19 48.8471 19 55.5C19 59.7961 18 64.0948 18 68.5C18 71.6655 15.8735 75.2408 15 70" stroke="black" stroke-width="3" stroke-linecap="round"/>
<path d="M18 13C27.7668 25.3522 40.6862 36.1611 49 49.5556C52.6799 55.4842 57.806 61.4179 60 68" stroke="black" stroke-width="3" stroke-linecap="round"/>
<path d="M22 52C24.7657 51.115 48.4292 45.8584 50 49" stroke="black" stroke-width="3" stroke-linecap="round"/>
<path d="M59 43C65.1229 52.5245 70.8282 62.5468 77.7778 71.5556C83.1886 78.5695 91.3611 71.9889 93.5 66C99.4683 49.2888 67.4336 59.2912 66.0556 46.8889C65.181 39.0183 68.1628 30.2117 63 23.5C58.3359 17.4367 49.3948 17 42.2222 17C38.8385 17 40 20.2703 40 23C40 28.7354 44.6405 31.6405 48.5 35.5C53.7109 40.7109 58.3563 48 66 48" stroke="black" stroke-width="3" stroke-linecap="round"/>
<path d="M93 51C98.9135 57.8543 105.737 64.4398 112.222 70.7778C115.137 73.6259 119.969 76.2324 124.056 74.4444C128.781 72.3771 134.617 64.429 130 59.5555C127.911 57.3505 126.071 53.764 123.778 52C123.539 51.8161 120.436 48.3658 121.222 48.4444C124.021 48.7243 130.166 55.6588 132.444 57.4444C137.347 61.2872 142.938 65.9411 148.444 68.9444C150.417 70.0206 151.984 69.9683 153 72" stroke="black" stroke-width="3" stroke-linecap="round"/>
<path d="M151 47C156.376 53.7989 162.557 59.9088 169.444 65.2222C171.484 66.7959 174.828 70.276 177 71" stroke="black" stroke-width="3" stroke-linecap="round"/>
<path d="M127 44C144.998 40.8239 161.756 35.4391 180 40" stroke="black" stroke-width="3" stroke-linecap="round"/>
<path d="M189 41C195.8 47.8 202.907 54.5533 209 62C209.872 63.0659 215.597 69 215 69" stroke="black" stroke-width="3" stroke-linecap="round"/>
<path d="M179 40C197.026 40 214.814 42.7286 232 37" stroke="black" stroke-width="3" stroke-linecap="round"/>
<path d="M238 45C238.576 55.1723 249.92 71.1362 261 72.7778C265.867 73.4988 270.854 69.1777 271.833 64.4444C273.247 57.611 267.743 53.3106 262.944 49.5C252.26 41.0152 245.311 35.1711 231.167 38C224.569 39.3196 230.741 54.8371 233 58" stroke="black" stroke-width="3" stroke-linecap="round"/>
<path d="M74.0645 90.293C73.959 91.1953 73.625 91.8926 73.0625 92.3848C72.5039 92.873 71.7598 93.1172 70.8301 93.1172C69.8223 93.1172 69.0137 92.7559 68.4043 92.0332C67.7988 91.3105 67.4961 90.3438 67.4961 89.1328V88.3125C67.4961 87.5195 67.6367 86.8223 67.918 86.2207C68.2031 85.6191 68.6055 85.1582 69.125 84.8379C69.6445 84.5137 70.2461 84.3516 70.9297 84.3516C71.8359 84.3516 72.5625 84.6055 73.1094 85.1133C73.6562 85.6172 73.9746 86.3164 74.0645 87.2109H72.9336C72.8359 86.5312 72.623 86.0391 72.2949 85.7344C71.9707 85.4297 71.5156 85.2773 70.9297 85.2773C70.2109 85.2773 69.6465 85.543 69.2363 86.0742C68.8301 86.6055 68.627 87.3613 68.627 88.3418V89.168C68.627 90.0938 68.8203 90.8301 69.207 91.377C69.5938 91.9238 70.1348 92.1973 70.8301 92.1973C71.4551 92.1973 71.9336 92.0566 72.2656 91.7754C72.6016 91.4902 72.8242 90.9961 72.9336 90.293H74.0645ZM79.3496 93C79.2871 92.875 79.2363 92.6523 79.1973 92.332C78.6934 92.8555 78.0918 93.1172 77.3926 93.1172C76.7676 93.1172 76.2539 92.9414 75.8516 92.5898C75.4531 92.2344 75.2539 91.7852 75.2539 91.2422C75.2539 90.582 75.5039 90.0703 76.0039 89.707C76.5078 89.3398 77.2148 89.1562 78.125 89.1562H79.1797V88.6582C79.1797 88.2793 79.0664 87.9785 78.8398 87.7559C78.6133 87.5293 78.2793 87.416 77.8379 87.416C77.4512 87.416 77.127 87.5137 76.8652 87.709C76.6035 87.9043 76.4727 88.1406 76.4727 88.418H75.3828C75.3828 88.1016 75.4941 87.7969 75.7168 87.5039C75.9434 87.207 76.248 86.9727 76.6309 86.8008C77.0176 86.6289 77.4414 86.543 77.9023 86.543C78.6328 86.543 79.2051 86.7266 79.6191 87.0938C80.0332 87.457 80.248 87.959 80.2637 88.5996V91.5176C80.2637 92.0996 80.3379 92.5625 80.4863 92.9062V93H79.3496ZM77.5508 92.1738C77.8906 92.1738 78.2129 92.0859 78.5176 91.9102C78.8223 91.7344 79.043 91.5059 79.1797 91.2246V89.9238H78.3301C77.002 89.9238 76.3379 90.3125 76.3379 91.0898C76.3379 91.4297 76.4512 91.6953 76.6777 91.8867C76.9043 92.0781 77.1953 92.1738 77.5508 92.1738ZM86.0645 86.6602H87.1484V93H86.0645V88.377L83.1406 93H82.0566V86.6602H83.1406V91.2891L86.0645 86.6602ZM86.3574 84.3516C86.3574 84.8242 86.1953 85.2051 85.8711 85.4941C85.5508 85.7793 85.1289 85.9219 84.6055 85.9219C84.082 85.9219 83.6582 85.7773 83.334 85.4883C83.0098 85.1992 82.8477 84.8203 82.8477 84.3516H83.7324C83.7324 84.625 83.8066 84.8398 83.9551 84.9961C84.1035 85.1484 84.3203 85.2246 84.6055 85.2246C84.8789 85.2246 85.0918 85.1484 85.2441 84.9961C85.4004 84.8438 85.4785 84.6289 85.4785 84.3516H86.3574ZM93.5996 87.5391H91.4727V93H90.3887V87.5391H88.3027V86.6602H93.5996V87.5391ZM97.7305 93V86.6602H100.203C101.047 86.6602 101.693 86.8086 102.143 87.1055C102.596 87.3984 102.822 87.8301 102.822 88.4004C102.822 88.6934 102.734 88.959 102.559 89.1973C102.383 89.4316 102.123 89.6113 101.779 89.7363C102.162 89.8262 102.469 90.002 102.699 90.2637C102.934 90.5254 103.051 90.8379 103.051 91.2012C103.051 91.7832 102.836 92.2285 102.406 92.5371C101.98 92.8457 101.377 93 100.596 93H97.7305ZM98.8145 90.2168V92.127H100.607C101.061 92.127 101.398 92.043 101.621 91.875C101.848 91.707 101.961 91.4707 101.961 91.166C101.961 90.5332 101.496 90.2168 100.566 90.2168H98.8145ZM98.8145 89.3496H100.215C101.23 89.3496 101.738 89.0527 101.738 88.459C101.738 87.8652 101.258 87.5586 100.297 87.5391H98.8145V89.3496ZM108.4 93C108.338 92.875 108.287 92.6523 108.248 92.332C107.744 92.8555 107.143 93.1172 106.443 93.1172C105.818 93.1172 105.305 92.9414 104.902 92.5898C104.504 92.2344 104.305 91.7852 104.305 91.2422C104.305 90.582 104.555 90.0703 105.055 89.707C105.559 89.3398 106.266 89.1562 107.176 89.1562H108.23V88.6582C108.23 88.2793 108.117 87.9785 107.891 87.7559C107.664 87.5293 107.33 87.416 106.889 87.416C106.502 87.416 106.178 87.5137 105.916 87.709C105.654 87.9043 105.523 88.1406 105.523 88.418H104.434C104.434 88.1016 104.545 87.7969 104.768 87.5039C104.994 87.207 105.299 86.9727 105.682 86.8008C106.068 86.6289 106.492 86.543 106.953 86.543C107.684 86.543 108.256 86.7266 108.67 87.0938C109.084 87.457 109.299 87.959 109.314 88.5996V91.5176C109.314 92.0996 109.389 92.5625 109.537 92.9062V93H108.4ZM106.602 92.1738C106.941 92.1738 107.264 92.0859 107.568 91.9102C107.873 91.7344 108.094 91.5059 108.23 91.2246V89.9238H107.381C106.053 89.9238 105.389 90.3125 105.389 91.0898C105.389 91.4297 105.502 91.6953 105.729 91.8867C105.955 92.0781 106.246 92.1738 106.602 92.1738ZM112.197 86.6602V92.1152H114.518V86.6602H115.602V92.1152H117.916V86.6602H119.006V93H111.107V86.6602H112.197ZM124.818 86.6602H125.902V93H124.818V88.377L121.895 93H120.811V86.6602H121.895V91.2891L124.818 86.6602ZM129.77 88.9746L131.176 86.6602H132.441L130.367 89.7949L132.506 93H131.252L129.787 90.627L128.322 93H127.062L129.201 89.7949L127.127 86.6602H128.381L129.77 88.9746ZM136.285 89.7715C136.285 89.1504 136.406 88.5918 136.648 88.0957C136.895 87.5996 137.234 87.2168 137.668 86.9473C138.105 86.6777 138.604 86.543 139.162 86.543C140.025 86.543 140.723 86.8418 141.254 87.4395C141.789 88.0371 142.057 88.832 142.057 89.8242V89.9004C142.057 90.5176 141.938 91.0723 141.699 91.5645C141.465 92.0527 141.127 92.4336 140.686 92.707C140.248 92.9805 139.744 93.1172 139.174 93.1172C138.314 93.1172 137.617 92.8184 137.082 92.2207C136.551 91.623 136.285 90.832 136.285 89.8477V89.7715ZM137.375 89.9004C137.375 90.6035 137.537 91.168 137.861 91.5938C138.189 92.0195 138.627 92.2324 139.174 92.2324C139.725 92.2324 140.162 92.0176 140.486 91.5879C140.811 91.1543 140.973 90.5488 140.973 89.7715C140.973 89.0762 140.807 88.5137 140.475 88.084C140.146 87.6504 139.709 87.4336 139.162 87.4336C138.627 87.4336 138.195 87.6465 137.867 88.0723C137.539 88.498 137.375 89.1074 137.375 89.9004ZM146.199 87.0234C146.996 87.0234 147.633 87.291 148.109 87.8262C148.59 88.3574 148.83 89.0586 148.83 89.9297V90.0293C148.83 90.627 148.715 91.1621 148.484 91.6348C148.254 92.1035 147.922 92.4688 147.488 92.7305C147.059 92.9883 146.562 93.1172 146 93.1172C145.148 93.1172 144.463 92.834 143.943 92.2676C143.424 91.6973 143.164 90.9336 143.164 89.9766V89.4492C143.164 88.1172 143.41 87.0586 143.902 86.2734C144.398 85.4883 145.129 85.0098 146.094 84.8379C146.641 84.7402 147.01 84.6211 147.201 84.4805C147.393 84.3398 147.488 84.1465 147.488 83.9004H148.379C148.379 84.3887 148.268 84.7695 148.045 85.043C147.826 85.3164 147.475 85.5098 146.99 85.623L146.182 85.8047C145.537 85.957 145.053 86.2148 144.729 86.5781C144.408 86.9375 144.199 87.418 144.102 88.0195C144.676 87.3555 145.375 87.0234 146.199 87.0234ZM145.988 87.9141C145.457 87.9141 145.035 88.0938 144.723 88.4531C144.41 88.8086 144.254 89.3027 144.254 89.9355V90.0293C144.254 90.709 144.41 91.248 144.723 91.6465C145.039 92.041 145.465 92.2383 146 92.2383C146.539 92.2383 146.965 92.0391 147.277 91.6406C147.59 91.2422 147.746 90.6602 147.746 89.8945C147.746 89.2969 147.588 88.8184 147.271 88.459C146.959 88.0957 146.531 87.9141 145.988 87.9141ZM149.404 86.6602H152.369V88.8457H154.016C154.734 88.8535 155.303 89.041 155.721 89.4082C156.139 89.7754 156.348 90.2734 156.348 90.9023C156.348 91.5352 156.133 92.043 155.703 92.4258C155.273 92.8086 154.695 93 153.969 93H151.285V87.5508H149.404V86.6602ZM152.369 89.7305V92.1152H153.98C154.387 92.1152 154.701 92.0117 154.924 91.8047C155.146 91.5938 155.258 91.3066 155.258 90.9434C155.258 90.5918 155.148 90.3047 154.93 90.082C154.715 89.8555 154.412 89.7383 154.021 89.7305H152.369ZM162.348 86.6602V93H161.258V90.5332H159.623L158.129 93H156.957L158.551 90.3691C158.145 90.2207 157.832 89.9922 157.613 89.6836C157.398 89.3711 157.291 89.0078 157.291 88.5938C157.291 88.0156 157.508 87.5508 157.941 87.1992C158.375 86.8438 158.955 86.6641 159.682 86.6602H162.348ZM158.381 88.6055C158.381 88.9141 158.486 89.1641 158.697 89.3555C158.908 89.543 159.188 89.6387 159.535 89.6426H161.258V87.5391H159.699C159.297 87.5391 158.977 87.6387 158.738 87.8379C158.5 88.0332 158.381 88.2891 158.381 88.6055ZM164.188 93V86.6602H166.66C167.504 86.6602 168.15 86.8086 168.6 87.1055C169.053 87.3984 169.279 87.8301 169.279 88.4004C169.279 88.6934 169.191 88.959 169.016 89.1973C168.84 89.4316 168.58 89.6113 168.236 89.7363C168.619 89.8262 168.926 90.002 169.156 90.2637C169.391 90.5254 169.508 90.8379 169.508 91.2012C169.508 91.7832 169.293 92.2285 168.863 92.5371C168.438 92.8457 167.834 93 167.053 93H164.188ZM165.271 90.2168V92.127H167.064C167.518 92.127 167.855 92.043 168.078 91.875C168.305 91.707 168.418 91.4707 168.418 91.166C168.418 90.5332 167.953 90.2168 167.023 90.2168H165.271ZM165.271 89.3496H166.672C167.688 89.3496 168.195 89.0527 168.195 88.459C168.195 87.8652 167.715 87.5586 166.754 87.5391H165.271V89.3496ZM176.141 86.6602V93H175.051V87.5566H172.895L172.766 89.9297C172.695 91.0195 172.512 91.7988 172.215 92.2676C171.922 92.7363 171.455 92.9805 170.814 93H170.381V92.0449L170.691 92.0215C171.043 91.9824 171.295 91.7793 171.447 91.4121C171.6 91.0449 171.697 90.3652 171.74 89.373L171.857 86.6602H176.141ZM180.512 93.1172C179.652 93.1172 178.953 92.8359 178.414 92.2734C177.875 91.707 177.605 90.9512 177.605 90.0059V89.8066C177.605 89.1777 177.725 88.6172 177.963 88.125C178.205 87.6289 178.541 87.2422 178.971 86.9648C179.404 86.6836 179.873 86.543 180.377 86.543C181.201 86.543 181.842 86.8145 182.299 87.3574C182.756 87.9004 182.984 88.6777 182.984 89.6895V90.1406H178.689C178.705 90.7656 178.887 91.2715 179.234 91.6582C179.586 92.041 180.031 92.2324 180.57 92.2324C180.953 92.2324 181.277 92.1543 181.543 91.998C181.809 91.8418 182.041 91.6348 182.24 91.377L182.902 91.8926C182.371 92.709 181.574 93.1172 180.512 93.1172ZM180.377 87.4336C179.939 87.4336 179.572 87.5938 179.275 87.9141C178.979 88.2305 178.795 88.6758 178.725 89.25H181.9V89.168C181.869 88.6172 181.721 88.1914 181.455 87.8906C181.189 87.5859 180.83 87.4336 180.377 87.4336ZM189.424 93H188.34V90.293H185.428V93H184.338V86.6602H185.428V89.4082H188.34V86.6602H189.424V93ZM195.271 86.6602H196.355V93H195.271V88.377L192.348 93H191.264V86.6602H192.348V91.2891L195.271 86.6602ZM202.197 86.6602H203.281V93H202.197V88.377L199.273 93H198.189V86.6602H199.273V91.2891L202.197 86.6602ZM202.49 84.3516C202.49 84.8242 202.328 85.2051 202.004 85.4941C201.684 85.7793 201.262 85.9219 200.738 85.9219C200.215 85.9219 199.791 85.7773 199.467 85.4883C199.143 85.1992 198.98 84.8203 198.98 84.3516H199.865C199.865 84.625 199.939 84.8398 200.088 84.9961C200.236 85.1484 200.453 85.2246 200.738 85.2246C201.012 85.2246 201.225 85.1484 201.377 84.9961C201.533 84.8438 201.611 84.6289 201.611 84.3516H202.49Z" fill="black"/>
</svg>
